<?xml version="1.0" encoding="UTF-8"?>
<svg id="Layer_2" data-name="Layer 2" xmlns="http://www.w3.org/2000/svg" viewBox="0 0 2712.17 792.31">
  <defs>
    <style>
      .cls-1 {
        fill: #5c6564;
      }

      .cls-2 {
        fill: #0ab26b;
      }
    </style>
  </defs>
  <g id="Layer_2-2" data-name="Layer 2">
    <g>
      <path class="cls-2" d="M.05,563.37c65.19-44.03,130.14-87.78,195.23-131.86,2.65-1.81,4.23-1.95,6.88.23,182.91,148.64,379.91,152.27,574.81,23.34,70.02,112.33,139.95,224.61,209.88,336.85-.14.14-.28.23-.37.37-74.86-55.98-149.85-111.73-224.71-167.71-3.16-2.37-5.67-2.74-9.3-1.12-13.72,6.28-27.52,12.32-41.38,18.23-3.21,1.39-4.51,3.21-4.42,6.74.7,31.06.56,62.12,1.72,93.13.14,3.07-.93,4.42-4.04,5.16-25.62,6.37-51.19,12.88-76.67,19.57-3.81,1.02-5.16-.14-6.56-3.53-11.11-27.71-22.5-55.28-33.57-83.04-1.63-4.04-3.72-5.44-7.9-5.07-17.67,1.53-35.34,3.3-53,4.46-3.77-.46-5.07,1.44-5.9,4.93-7.25,29.85-14.83,59.61-22.08,89.46-.98,4-2.37,5.77-6.79,5.3-13.34-1.35-26.69-2.32-40.08-3.44-11.72-.98-23.48-2.09-35.2-2.79-3.3-.19-4.56-1.35-4.84-4.32-2.14-22.41-4.37-44.77-6.46-67.14-.74-7.72-1.49-15.44-1.91-23.15-.19-3.21-1.3-4.74-4.46-5.49-14.79-3.49-29.57-7.11-44.31-10.88-3.25-.84-4.84.33-6.46,2.98-16.51,26.87-33.2,53.61-49.66,80.48-2.14,3.49-3.91,4.09-7.76,2.51-24.87-10.18-49.84-20.09-74.86-29.94-3.63-1.44-4.97-2.88-3.95-7.21,7.07-29.57,13.72-59.23,20.69-88.85.93-3.95.23-6.09-3.39-8.32-16.32-9.95-32.5-20.18-48.59-30.5-2.93-1.86-4.79-1.63-7.39.6-23.15,19.81-46.45,39.47-69.7,59.23-1.86,1.58-3.25,3.07-6.04.84-32.31-26.97-65.6-52.77-97.5-80.16l.05.09Z"/>
      <path class="cls-1" d="M464.43,497.17V0c79.23,39.66,158.31,79.51,237.59,119.03,3.49,1.58,4.32,3.72,4.32,7.25-.14,56.63,0,113.31-.09,169.94-.6,4.51,1.02,6.56,5.81,7.39,10.69,1.86,21.25,4.56,31.9,6.79,2.84.6,4.18,1.58,4.18,4.93-.14,35.85-.14,71.74,0,107.59,0,2.7-.93,4.28-3.12,5.81-81.92,54.77-182.91,75.41-280.5,68.49l-.09-.05ZM493.54,126.65c-.65,15.48.14,30.45-.37,45.89-.09,4.18,1.63,5.3,5.21,5.95,17.02,3.07,33.99,6.23,50.91,9.53,3.67.7,5.44.28,5.39-4.14-.23-13.9-.19-27.8,0-41.66.05-3.63-1.3-4.93-4.7-5.49-19.11-3.3-37.01-6.74-56.44-10.04v-.05ZM554.35,120.75c.7-15.58-.09-30.55.37-46.08.09-4.05-1.44-5.44-5.11-6.04-18.83-3.25-37.01-6.74-55.98-9.95-.79,15.62,0,30.97-.42,46.54-.05,3.58,1.39,4.56,4.51,5.11,19.11,3.49,37.24,7.07,56.63,10.41M493.54,194.77c-.65,15.44.14,30.41-.37,45.8-.09,4.18,1.63,5.35,5.16,5.95,18.5,3.3,37.01,7.07,55.51,10.14.37-1.12.65-1.53.65-1.95.05-15.39.05-30.78.14-46.17,0-2.88-1.86-3.25-4.05-3.67-19.16-3.39-37.66-6.93-57-10.14l-.05.05Z"/>
      <path class="cls-2" d="M438.16.37v493.86c-8.04-1.3-15.81-2.42-23.48-3.86-.98-.19-1.86-1.95-2.32-3.21-.28-155.8,0-311.79-.19-467.69,0-4.65,1.21-7.35,5.63-9.21,6.7-2.84,13.16-6.32,20.41-9.9h-.05Z"/>
      <path class="cls-1" d="M386.37,25.66v459.23c-8.55-2.46-16.78-4.79-24.92-7.3-.65-.19-1.21-1.53-1.35-2.42-.23-143.44,0-287.01-.19-430.49,0-4.46,1.02-7.02,5.35-8.83,6.97-2.93,13.62-6.51,21.11-10.18"/>
      <path class="cls-2" d="M333.27,467.73c-8.09-3.53-15.58-6.74-23.01-10.14-.93-.42-1.58-2-1.91-3.16-.23-127.91,0-255.91-.19-383.81,0-4.51,1.12-7.07,5.39-8.88,6.56-2.74,12.79-6.18,19.71-9.58v415.61-.05Z"/>
      <path class="cls-1" d="M282.31,443.98c-7.9-4.93-15.11-9.35-22.22-13.99-.93-.6-1.39-2.19-1.63-3.39-.28-110.42,0-220.94-.19-331.41,0-4.93,1.35-7.58,5.95-9.44,6.04-2.42,11.76-5.63,18.13-8.74v366.98h-.05Z"/>
      <path class="cls-2" d="M231.82,409.34c-8.28-7.76-15.9-14.65-23.11-21.99-1.49-1.49-1.86-4.6-1.86-6.93-.19-86.94.05-173.89-.14-260.83,0-3.63,1.12-5.72,4.46-7.25,6.79-3.07,13.39-6.46,20.69-10.09v307.1h-.05Z"/>
      <g>
        <path class="cls-1" d="M2700.79,375.55c-7.43,6.69-14.61,13.63-22.22,20.13-88.32,73.77-240.16,39.22-275.57-73.77-31.61-94.52,14.18-197.99,112.68-224.2,65.73-18.11,131.59-6.26,181.85,43.58-15.34,17.74-30.38,35.04-45.85,52.97-4.23-3.44-8.16-6.63-12.09-9.76-65.92-55.97-161.84-22.65-170.07,65.12-10.37,83.47,71.13,147.91,148.95,105.2,12.4-6.94,23.57-16.2,36.82-25.47,11.78,13.44,26.21,27.37,39.16,40.14,1.78,1.78,4.17,2.95,6.32,4.42v1.66Z"/>
        <path class="cls-1" d="M1257.01,428.7v-214.07c-.61-.12-1.29-.31-1.9-.49-26.64,56.89-51.25,114.77-76.72,172.22-3.44,7.92-7.67,10.86-16.2,10.31-11.91-.74-23.87-.55-35.78,0-6.2.25-8.96-2.09-11.42-7.55-24.61-55.05-49.53-110.04-74.39-165.03-1.29-2.82-2.76-5.59-5.59-8.16v212.11h-70.21V96.61c27.31-.98,54.62.12,81.93-.55,6.57-.12,9.94,1.9,12.7,7.98,28.97,63.52,57.14,126.61,86.91,189.83,30.2-63.34,58.8-126.68,88.26-190.32,2.52-5.46,5.34-7.61,11.42-7.49,24.67.37,49.34.37,74.02,0,6.26-.06,8.53,1.53,8.53,8.1-.12,105.44-.12,210.88,0,316.32,0,6.14-1.53,8.53-8.22,8.35-20.56-.43-41.18-.18-63.4-.18l.06.06Z"/>
        <path class="cls-1" d="M2192.73,319.15c22.89,36.7,45.17,72.42,68.13,109.12-29.83,1.17-58.92-.12-88.69.61-6.08.06-9.08-2.09-11.72-7.3-13.26-26.33-27.07-52.41-40.32-78.74-2.39-4.79-5.22-6.69-10.62-6.63-17.86.25-35.78.37-53.64,0-7.12-.18-9.45,2.03-9.39,9.14.31,24.92-.06,49.84.25,74.75.06,6.63-1.78,8.9-8.65,8.78-20.56-.43-41.18-.68-61.74.06-8.84.31-10.19-2.95-10.13-10.68.18-104.03.37-208.06,0-312.09,0-7.55,1.66-10.25,9.82-10.19,51.49.37,102.92,0,154.42.31,57.69-.55,116.73,33.08,119.92,95.31,1.47,18.11-.31,36.76-2.7,54.93-4.05,33.51-26.88,55.67-54.75,72.54l-.18.06ZM2046.53,209.41c0,13.81.06,27.68,0,41.49,0,4.42.92,7.3,6.2,7.18,26.02-.37,52.11.55,78.01-1.23,33.39-2.33,52.35-31.42,42.78-63.15-5.22-17.43-21.6-30.32-43.21-31.36-25.65-1.29-51.43-.8-77.15-1.17-4.97-.06-6.69,2.09-6.63,6.81.12,13.81,0,27.62,0,41.49v-.06Z"/>
        <path class="cls-1" d="M1632.99,364.38v63.58h-268.27V96.85h265.07v63.15h-176.82c-.37,3.68-.86,6.51-.86,9.33-.06,16.82.25,33.57-.18,50.39-.18,7.24,2.03,9.82,9.64,9.76,49.16-.37,97.95-.12,147.11-.18,1.17,16.02.49,31.42.55,47.38-.25,18.04,2.82,16.08-15.77,16.14-42.78.12-85.62,0-128.46,0-8.65,0-13.01,4.48-13.01,13.38.37,19.58-.86,38.54.8,58.12h180.19v.06Z"/>
        <path class="cls-1" d="M1935.71,96.67v65.55h-90.4c-10.74,0-10.8,0-10.8,10.74v243.9c0,14.55-.37,11.66-11.91,11.72-22.71.12-45.42,0-69.29,0v-255.62c0-10.74,0-10.8-10.56-10.8-27.37,0-54.75-.18-82.12.12-6.57.06-9.14-1.66-8.96-8.59.43-16.82.25-33.57.06-50.39,0-4.85,1.1-7.3,6.81-7.3,92.43.61,184.86-.74,277.23.61l-.06.06Z"/>
        <path class="cls-1" d="M2358.01,262.5c0,52.05-.18,104.09.18,156.07,0,8.16-2.15,10.68-10.43,10.31-17.31-.74-34.68-.61-51.98,0-7.86.25-10.07-2.03-10.07-9.88.31-66.96.18-133.86.18-200.82,0-37.38.25-74.81-.18-112.19-.06-7.86,2.21-10.19,10.07-9.94,17.61.55,35.23.55,52.84,0,7.55-.25,9.64,2.15,9.57,9.57-.25,52.29-.12,104.58-.12,156.93l-.06-.06Z"/>
      </g>
      <g>
        <path class="cls-1" d="M977,611.22v-102.87h19.69l43.79,72.6h-10.43l43.06-72.6h19.55l.29,102.87h-22.34l-.15-68.63h4.11l-34.39,57.76h-10.73l-35.12-57.76h5v68.63h-22.34Z"/>
        <path class="cls-1" d="M1103.83,611.22l45.85-102.87h23.51l46,102.87h-24.98l-37.62-90.82h9.41l-37.77,90.82h-24.4ZM1126.75,589.18l6.32-18.08h52.91l6.47,18.08h-65.69Z"/>
        <path class="cls-1" d="M1229.92,611.22v-102.87h19.69l60.7,74.07h-9.55v-74.07h23.51v102.87h-19.55l-60.84-74.07h9.55v74.07h-23.51Z"/>
        <path class="cls-1" d="M1335.15,611.22l45.85-102.87h23.51l46,102.87h-24.98l-37.62-90.82h9.41l-37.77,90.82h-24.4ZM1358.07,589.18l6.32-18.08h52.91l6.47,18.08h-65.69Z"/>
        <path class="cls-1" d="M1509.44,612.99c-8.13,0-15.6-1.3-22.41-3.89-6.81-2.59-12.74-6.29-17.78-11.1-5.05-4.8-8.96-10.43-11.76-16.9-2.79-6.47-4.19-13.57-4.19-21.31s1.4-14.84,4.19-21.31c2.79-6.47,6.74-12.1,11.83-16.9,5.09-4.8,11.07-8.5,17.93-11.1,6.86-2.59,14.4-3.89,22.63-3.89,9.11,0,17.32,1.52,24.62,4.56,7.3,3.04,13.45,7.45,18.44,13.23l-15.28,14.11c-3.72-3.92-7.79-6.83-12.2-8.74-4.41-1.91-9.21-2.87-14.4-2.87s-9.55.79-13.67,2.35c-4.12,1.57-7.67,3.82-10.66,6.76-2.99,2.94-5.29,6.42-6.91,10.43-1.62,4.02-2.42,8.48-2.42,13.37s.81,9.21,2.42,13.23c1.62,4.02,3.92,7.52,6.91,10.51,2.99,2.99,6.51,5.27,10.58,6.83,4.06,1.57,8.55,2.35,13.45,2.35s9.28-.76,13.74-2.28c4.46-1.52,8.79-4.09,13.01-7.72l13.52,17.19c-5.58,4.21-12.08,7.45-19.47,9.7-7.4,2.25-14.77,3.38-22.12,3.38ZM1529.28,596.82v-38.65h21.75v41.74l-21.75-3.09Z"/>
        <path class="cls-1" d="M1596.74,592.12h55.99v19.11h-79.65v-102.87h77.74v19.1h-54.08v64.66ZM1594.97,549.79h49.53v18.52h-49.53v-18.52Z"/>
        <path class="cls-1" d="M1671.69,611.22v-102.87h19.69l43.79,72.6h-10.43l43.06-72.6h19.55l.29,102.87h-22.34l-.15-68.63h4.11l-34.39,57.76h-10.73l-35.12-57.76h5v68.63h-22.34Z"/>
        <path class="cls-1" d="M1835.69,592.12h55.99v19.11h-79.65v-102.87h77.74v19.1h-54.08v64.66ZM1833.93,549.79h49.53v18.52h-49.53v-18.52Z"/>
        <path class="cls-1" d="M1910.64,611.22v-102.87h19.69l60.7,74.07h-9.55v-74.07h23.51v102.87h-19.55l-60.84-74.07h9.55v74.07h-23.51Z"/>
        <path class="cls-1" d="M2050.7,611.22v-83.47h-32.92v-19.4h89.65v19.4h-32.92v83.47h-23.81Z"/>
        <path class="cls-1" d="M2211.47,612.99c-8.13,0-15.6-1.3-22.41-3.89-6.81-2.59-12.74-6.29-17.78-11.1-5.05-4.8-8.96-10.43-11.76-16.9-2.79-6.47-4.19-13.57-4.19-21.31s1.4-14.84,4.19-21.31c2.79-6.47,6.74-12.1,11.83-16.9,5.09-4.8,11.07-8.5,17.93-11.1,6.86-2.59,14.4-3.89,22.63-3.89,9.11,0,17.32,1.52,24.62,4.56,7.3,3.04,13.45,7.45,18.44,13.23l-15.28,14.11c-3.72-3.92-7.79-6.83-12.2-8.74-4.41-1.91-9.21-2.87-14.4-2.87s-9.55.79-13.67,2.35c-4.12,1.57-7.67,3.82-10.66,6.76-2.99,2.94-5.29,6.42-6.91,10.43-1.62,4.02-2.42,8.48-2.42,13.37s.81,9.21,2.42,13.23c1.62,4.02,3.92,7.52,6.91,10.51,2.99,2.99,6.51,5.27,10.58,6.83,4.06,1.57,8.55,2.35,13.45,2.35s9.28-.76,13.74-2.28c4.46-1.52,8.79-4.09,13.01-7.72l13.52,17.19c-5.58,4.21-12.08,7.45-19.47,9.7-7.4,2.25-14.77,3.38-22.12,3.38ZM2231.31,596.82v-38.65h21.75v41.74l-21.75-3.09Z"/>
        <path class="cls-1" d="M2275.11,611.22v-102.87h44.53c9.21,0,17.14,1.49,23.81,4.48,6.66,2.99,11.81,7.28,15.43,12.86,3.62,5.58,5.44,12.25,5.44,19.99s-1.81,14.23-5.44,19.77c-3.62,5.54-8.77,9.77-15.43,12.71-6.66,2.94-14.6,4.41-23.81,4.41h-31.3l10.58-10.43v39.09h-23.81ZM2298.91,574.78l-10.58-11.17h29.98c7.35,0,12.83-1.59,16.46-4.78,3.62-3.18,5.44-7.57,5.44-13.15s-1.81-10.09-5.44-13.23c-3.63-3.13-9.11-4.7-16.46-4.7h-29.98l10.58-11.32v58.34ZM2340.5,611.22l-25.72-37.33h25.42l26.01,37.33h-25.72Z"/>
        <path class="cls-1" d="M2433.09,612.99c-8.13,0-15.65-1.32-22.56-3.97-6.91-2.65-12.88-6.37-17.93-11.17-5.05-4.8-8.96-10.43-11.76-16.9-2.79-6.47-4.19-13.52-4.19-21.16s1.4-14.7,4.19-21.16c2.79-6.47,6.74-12.1,11.83-16.9,5.09-4.8,11.07-8.52,17.93-11.17,6.86-2.65,14.3-3.97,22.34-3.97s15.6,1.32,22.41,3.97c6.81,2.65,12.74,6.37,17.78,11.17,5.04,4.8,8.99,10.41,11.83,16.83,2.84,6.42,4.26,13.5,4.26,21.24s-1.42,14.72-4.26,21.24c-2.84,6.52-6.79,12.15-11.83,16.9-5.05,4.75-10.97,8.45-17.78,11.1-6.81,2.64-14.23,3.97-22.26,3.97ZM2432.94,592.71c4.6,0,8.84-.78,12.71-2.35,3.87-1.57,7.27-3.82,10.21-6.76s5.22-6.42,6.83-10.43c1.62-4.02,2.43-8.47,2.43-13.37s-.81-9.36-2.43-13.37c-1.62-4.02-3.87-7.5-6.76-10.43-2.89-2.94-6.3-5.19-10.21-6.76-3.92-1.57-8.18-2.35-12.79-2.35s-8.84.79-12.71,2.35c-3.87,1.57-7.27,3.82-10.21,6.76-2.94,2.94-5.22,6.42-6.83,10.43-1.62,4.02-2.42,8.48-2.42,13.37s.81,9.24,2.42,13.3c1.62,4.07,3.87,7.57,6.76,10.51,2.89,2.94,6.29,5.19,10.21,6.76,3.92,1.57,8.18,2.35,12.79,2.35Z"/>
        <path class="cls-1" d="M2552.86,612.99c-14.6,0-26.01-4.06-34.24-12.2-8.23-8.13-12.34-19.74-12.34-34.83v-57.61h23.81v56.73c0,9.8,2.01,16.85,6.03,21.16,4.02,4.31,9.65,6.47,16.9,6.47s12.88-2.15,16.9-6.47c4.02-4.31,6.03-11.36,6.03-21.16v-56.73h23.51v57.61c0,15.09-4.12,26.7-12.34,34.83-8.23,8.13-19.64,12.2-34.24,12.2Z"/>
        <path class="cls-1" d="M2622.96,611.22v-102.87h44.53c9.21,0,17.14,1.49,23.81,4.48,6.66,2.99,11.81,7.28,15.43,12.86,3.62,5.58,5.44,12.25,5.44,19.99s-1.81,14.25-5.44,19.84c-3.62,5.58-8.77,9.87-15.43,12.86-6.66,2.99-14.6,4.48-23.81,4.48h-31.3l10.58-10.73v39.09h-23.81ZM2646.77,574.78l-10.58-11.32h29.98c7.35,0,12.83-1.57,16.46-4.7,3.62-3.13,5.44-7.5,5.44-13.08s-1.81-10.09-5.44-13.23c-3.63-3.13-9.11-4.7-16.46-4.7h-29.98l10.58-11.32v58.34Z"/>
      </g>
    </g>
  </g>
</svg>